<?xml version="1.0" encoding="utf-8"?>
<!-- Generator: Adobe Illustrator 13.0.0, SVG Export Plug-In . SVG Version: 6.00 Build 14948)  -->
<!DOCTYPE svg PUBLIC "-//W3C//DTD SVG 1.1//EN" "http://www.w3.org/Graphics/SVG/1.1/DTD/svg11.dtd">
<svg version="1.1" id="Layer_1" xmlns="http://www.w3.org/2000/svg" xmlns:xlink="http://www.w3.org/1999/xlink" x="0px" y="0px"
	 width="136.066px" height="110.579px" viewBox="0 0 136.066 110.579" enable-background="new 0 0 136.066 110.579"
	 xml:space="preserve">
<path fill="#FFFFFF" d="M136.066,13.09c-5.006,2.221-10.387,3.722-16.033,4.396c5.764-3.455,10.189-8.926,12.274-15.444
	c-5.396,3.199-11.37,5.522-17.728,6.773C109.487,3.391,102.232,0,94.204,0C78.786,0,66.287,12.499,66.287,27.916
	c0,2.188,0.247,4.318,0.724,6.361c-23.2-1.164-43.77-12.278-57.537-29.168c-2.404,4.124-3.781,8.919-3.781,14.035
	c0,9.685,4.928,18.229,12.419,23.235c-4.576-0.146-8.88-1.401-12.644-3.491c-0.002,0.116-0.002,0.232-0.002,0.351
	c0,13.525,9.622,24.808,22.392,27.372c-2.342,0.639-4.808,0.98-7.354,0.98c-1.8,0-3.549-0.176-5.253-0.502
	c3.553,11.09,13.861,19.162,26.077,19.387c-9.554,7.487-21.59,11.95-34.67,11.95c-2.252,0-4.475-0.132-6.658-0.392
	c12.354,7.922,27.028,12.544,42.791,12.544c51.348,0,79.427-42.538,79.427-79.427c0-1.211-0.027-2.414-0.081-3.611
	C127.591,23.604,132.324,18.688,136.066,13.09z"/>
</svg>
