<?xml version="1.0" encoding="utf-8"?>
<!-- Generator: Adobe Illustrator 13.0.0, SVG Export Plug-In . SVG Version: 6.00 Build 14948)  -->
<!DOCTYPE svg PUBLIC "-//W3C//DTD SVG 1.1//EN" "http://www.w3.org/Graphics/SVG/1.1/DTD/svg11.dtd">
<svg version="1.1" id="Layer_1" xmlns="http://www.w3.org/2000/svg" xmlns:xlink="http://www.w3.org/1999/xlink" x="0px" y="0px"
	 width="91.048px" height="110.148px" viewBox="0 0 91.048 110.148" enable-background="new 0 0 91.048 110.148"
	 xml:space="preserve">
<g>
	<g>
		<path opacity="0.3" fill-rule="evenodd" clip-rule="evenodd" fill="#FFFFFF" d="M35.977,0.667h-6.235L25.535,16.84L21.158,0.667
			H14.67c1.298,3.819,2.65,7.654,3.952,11.474c1.979,5.746,3.209,10.075,3.769,13.029v16.679h6.168V25.169L35.977,0.667z
			 M52.453,31.911V21.166c0-3.279-0.559-5.677-1.725-7.229c-1.537-2.099-3.703-3.146-6.489-3.146c-2.77,0-4.933,1.046-6.47,3.146
			c-1.182,1.552-1.741,3.95-1.741,7.229v10.745c0,3.264,0.559,5.681,1.741,7.217c1.538,2.092,3.7,3.141,6.47,3.141
			c2.786,0,4.952-1.049,6.489-3.141C51.894,37.592,52.453,35.174,52.453,31.911z M46.893,32.961c0,2.838-0.862,4.259-2.654,4.259
			c-1.791,0-2.651-1.421-2.651-4.259V20.05c0-2.838,0.86-4.256,2.651-4.256c1.792,0,2.654,1.417,2.654,4.256V32.961z M73.015,41.848
			V11.159h-5.561v23.456c-1.231,1.743-2.398,2.604-3.509,2.604c-0.747,0-1.183-0.444-1.306-1.302
			c-0.067-0.184-0.067-0.862-0.067-2.165V11.159H57.03v24.269c0,2.164,0.188,3.631,0.494,4.563c0.554,1.551,1.79,2.279,3.579,2.279
			c2.029,0,4.139-1.229,6.352-3.769v3.348H73.015z"/>
		<path fill-rule="evenodd" clip-rule="evenodd" fill="#FFFFFF" d="M35.99,0h-6.234l-4.204,16.17L21.173,0h-6.487
			c1.298,3.815,2.652,7.654,3.954,11.474c1.977,5.742,3.21,10.071,3.767,13.028v16.676h6.167V24.502L35.99,0z M52.471,31.244V20.495
			c0-3.279-0.562-5.677-1.727-7.229c-1.54-2.095-3.7-3.145-6.487-3.145c-2.77,0-4.936,1.05-6.474,3.145
			c-1.182,1.552-1.741,3.95-1.741,7.229v10.749c0,3.26,0.559,5.677,1.741,7.217c1.538,2.091,3.704,3.141,6.474,3.141
			c2.787,0,4.947-1.05,6.487-3.141C51.91,36.921,52.471,34.504,52.471,31.244z M46.908,32.291c0,2.838-0.857,4.259-2.65,4.259
			c-1.795,0-2.655-1.421-2.655-4.259V19.38c0-2.838,0.86-4.252,2.655-4.252c1.792,0,2.65,1.414,2.65,4.252V32.291z M73.035,41.178
			V10.493h-5.563v23.452c-1.231,1.743-2.399,2.604-3.511,2.604c-0.747,0-1.182-0.44-1.305-1.302
			c-0.067-0.18-0.067-0.858-0.067-2.165v-22.59h-5.543v24.265c0,2.164,0.186,3.635,0.493,4.562c0.555,1.556,1.79,2.283,3.581,2.283
			c2.026,0,4.14-1.233,6.352-3.773v3.349H73.035z"/>
	</g>
	<g>
		<path fill="#FFFFFF" d="M76.019,72.334c-1.839,0-2.759,1.405-2.759,4.213v2.808h5.501v-2.808
			C78.761,73.739,77.84,72.334,76.019,72.334z"/>
		<path fill="#FFFFFF" d="M55.601,72.334c-0.904,0-1.822,0.433-2.741,1.336v18.51c0.919,0.92,1.837,1.353,2.741,1.353
			c1.588,0,2.393-1.353,2.393-4.095V76.479C57.994,73.739,57.189,72.334,55.601,72.334z"/>
		<path fill="#FFFFFF" d="M89.471,56.896c-1.114-4.839-5.074-8.409-9.841-8.941c-11.291-1.264-22.718-1.268-34.094-1.264
			c-11.377-0.004-22.805,0-34.094,1.264c-4.767,0.533-8.727,4.103-9.838,8.941C0.017,63.795,0,71.318,0,78.421
			c0,7.099,0,14.626,1.586,21.521c1.113,4.842,5.07,8.412,9.838,8.945c11.289,1.26,22.716,1.268,34.094,1.26
			c11.376,0.008,22.803,0,34.095-1.26c4.766-0.533,8.728-4.104,9.839-8.945c1.588-6.896,1.597-14.423,1.597-21.521
			C91.048,71.318,91.056,63.795,89.471,56.896z M25.969,63.102h-6.591v35.018h-6.12V63.102H6.787v-5.739h19.183V63.102z
			 M42.595,98.119h-5.507v-3.313c-2.186,2.509-4.264,3.73-6.287,3.73c-1.774,0-2.996-0.721-3.545-2.26
			c-0.302-0.92-0.485-2.367-0.485-4.514V67.752h5.499v22.356c0,1.287,0,1.961,0.052,2.138c0.131,0.854,0.552,1.287,1.287,1.287
			c1.104,0,2.259-0.851,3.479-2.574V67.752h5.507V98.119z M63.496,89.005c0,2.808-0.188,4.831-0.553,6.118
			c-0.736,2.26-2.207,3.413-4.4,3.413c-1.955,0-3.846-1.088-5.683-3.363v2.946h-5.503V57.363h5.503v13.312
			c1.775-2.188,3.661-3.294,5.683-3.294c2.193,0,3.664,1.153,4.4,3.428c0.365,1.223,0.553,3.23,0.553,6.103V89.005z M84.263,83.937
			H73.26v5.383c0,2.812,0.92,4.213,2.808,4.213c1.355,0,2.146-0.735,2.461-2.206c0.049-0.299,0.117-1.521,0.117-3.728h5.617v0.805
			c0,1.77-0.068,2.991-0.117,3.543c-0.186,1.218-0.619,2.321-1.285,3.298c-1.525,2.203-3.781,3.291-6.654,3.291
			c-2.881,0-5.07-1.037-6.66-3.11c-1.168-1.517-1.768-3.915-1.768-7.141V77.647c0-3.245,0.53-5.616,1.701-7.152
			c1.587-2.081,3.78-3.115,6.588-3.115c2.761,0,4.952,1.034,6.492,3.115c1.151,1.536,1.703,3.907,1.703,7.152V83.937z"/>
	</g>
</g>
</svg>
